<svg width="16" height="17" viewBox="0 0 16 17" fill="none" xmlns="http://www.w3.org/2000/svg">
<path d="M14.0003 4.78385C13.8826 4.8448 13.7456 4.85652 13.6192 4.81644C13.4929 4.77636 13.3876 4.68776 13.3266 4.5701C12.8493 3.62728 12.127 2.83042 11.2353 2.26323C11.1798 2.22818 11.1317 2.18253 11.0937 2.12889C11.0558 2.07525 11.0288 2.01466 11.0143 1.95059C10.9998 1.88652 10.9981 1.82021 11.0092 1.75547C11.0203 1.69072 11.044 1.62879 11.0791 1.57323C11.1141 1.51766 11.1598 1.46954 11.2134 1.43162C11.2671 1.3937 11.3277 1.36671 11.3917 1.3522C11.4558 1.33769 11.5221 1.33594 11.5869 1.34706C11.6516 1.35817 11.7135 1.38193 11.7691 1.41698C12.8082 2.08231 13.652 3.0117 14.2141 4.1101C14.275 4.2278 14.2868 4.36488 14.2467 4.49122C14.2066 4.61756 14.118 4.72282 14.0003 4.78385ZM2.23221 4.8401C2.32381 4.84006 2.41365 4.81486 2.4919 4.76725C2.57015 4.71963 2.63383 4.65144 2.67596 4.5701C3.15321 3.62728 3.8756 2.83042 4.76721 2.26323C4.87943 2.19245 4.95894 2.07999 4.98824 1.95059C5.01754 1.82119 4.99424 1.68545 4.92346 1.57323C4.85268 1.46101 4.74022 1.3815 4.61082 1.3522C4.48142 1.3229 4.34568 1.3462 4.23346 1.41698C3.19434 2.08231 2.35057 3.0117 1.78846 4.1101C1.74899 4.1863 1.72979 4.27138 1.73271 4.35715C1.73564 4.44292 1.76059 4.52649 1.80517 4.59982C1.84974 4.67315 1.91245 4.73378 1.98724 4.77586C2.06203 4.81794 2.14639 4.84007 2.23221 4.8401ZM13.8635 11.3364C13.952 11.4883 13.999 11.6608 13.9996 11.8367C14.0002 12.0125 13.9544 12.1854 13.8669 12.3379C13.7794 12.4904 13.6532 12.6171 13.501 12.7053C13.3489 12.7935 13.1762 12.84 13.0003 12.8401H10.4503C10.3356 13.4052 10.029 13.9133 9.58247 14.2783C9.13596 14.6432 8.57702 14.8426 8.00034 14.8426C7.42366 14.8426 6.86471 14.6432 6.41821 14.2783C5.9717 13.9133 5.6651 13.4052 5.55034 12.8401H3.00034C2.8246 12.8398 2.65206 12.7931 2.50009 12.7048C2.34812 12.6166 2.2221 12.4898 2.13471 12.3374C2.04732 12.1849 2.00166 12.0121 2.00232 11.8364C2.00298 11.6606 2.04993 11.4882 2.13846 11.3364C2.70159 10.3645 3.00034 8.9826 3.00034 7.3401C3.00034 6.01402 3.52712 4.74225 4.4648 3.80457C5.40249 2.86689 6.67426 2.3401 8.00034 2.3401C9.32642 2.3401 10.5982 2.86689 11.5359 3.80457C12.4736 4.74225 13.0003 6.01402 13.0003 7.3401C13.0003 8.98198 13.2991 10.3639 13.8635 11.3364ZM9.41409 12.8401H6.58659C6.69018 13.1322 6.88172 13.3851 7.13488 13.5639C7.38804 13.7428 7.69038 13.8388 8.00034 13.8388C8.31029 13.8388 8.61264 13.7428 8.8658 13.5639C9.11896 13.3851 9.3105 13.1322 9.41409 12.8401ZM13.0003 11.8401C12.3353 10.6982 12.0003 9.18448 12.0003 7.3401C12.0003 6.27924 11.5789 5.26182 10.8288 4.51168C10.0786 3.76153 9.0612 3.3401 8.00034 3.3401C6.93947 3.3401 5.92206 3.76153 5.17191 4.51168C4.42176 5.26182 4.00034 6.27924 4.00034 7.3401C4.00034 9.1851 3.66409 10.6989 3.00034 11.8401H13.0003Z" fill="white"/>
</svg>
