<svg width="16" height="17" viewBox="0 0 16 17" fill="none" xmlns="http://www.w3.org/2000/svg">
<path d="M14.5 13.3401C14.5 13.4727 14.4473 13.5999 14.3536 13.6936C14.2598 13.7874 14.1326 13.8401 14 13.8401H2C1.86739 13.8401 1.74021 13.7874 1.64645 13.6936C1.55268 13.5999 1.5 13.4727 1.5 13.3401V3.34009C1.5 3.20748 1.55268 3.0803 1.64645 2.98653C1.74021 2.89277 1.86739 2.84009 2 2.84009C2.13261 2.84009 2.25979 2.89277 2.35355 2.98653C2.44732 3.0803 2.5 3.20748 2.5 3.34009V9.23821L5.67063 6.46509C5.7569 6.38956 5.86652 6.34599 5.9811 6.34166C6.09569 6.33734 6.20828 6.37253 6.3 6.44134L9.97563 9.19821L13.6706 5.96509C13.7191 5.91713 13.7768 5.87959 13.8403 5.85476C13.9038 5.82994 13.9717 5.81836 14.0398 5.82074C14.1079 5.82311 14.1749 5.8394 14.2365 5.86859C14.2981 5.89778 14.3531 5.93925 14.398 5.99047C14.443 6.04169 14.4771 6.10157 14.4981 6.16642C14.5191 6.23128 14.5266 6.29974 14.5201 6.3676C14.5137 6.43547 14.4935 6.5013 14.4607 6.56106C14.4279 6.62082 14.3832 6.67323 14.3294 6.71509L10.3294 10.2151C10.2431 10.2906 10.1335 10.3342 10.0189 10.3385C9.90431 10.3428 9.79173 10.3076 9.7 10.2388L6.02437 7.48321L2.5 10.567V12.8401H14C14.1326 12.8401 14.2598 12.8928 14.3536 12.9865C14.4473 13.0803 14.5 13.2075 14.5 13.3401Z" fill="white"/>
</svg>
