<svg width="16" height="17" viewBox="0 0 16 17" fill="none" xmlns="http://www.w3.org/2000/svg">
<path d="M13.3538 4.48634L10.8538 1.98634C10.8073 1.93992 10.7521 1.90311 10.6914 1.87802C10.6307 1.85293 10.5657 1.84004 10.5 1.84009H5.5C5.23478 1.84009 4.98043 1.94544 4.79289 2.13298C4.60536 2.32052 4.5 2.57487 4.5 2.84009V3.84009H3.5C3.23478 3.84009 2.98043 3.94544 2.79289 4.13298C2.60536 4.32052 2.5 4.57487 2.5 4.84009V13.8401C2.5 14.1053 2.60536 14.3597 2.79289 14.5472C2.98043 14.7347 3.23478 14.8401 3.5 14.8401H10.5C10.7652 14.8401 11.0196 14.7347 11.2071 14.5472C11.3946 14.3597 11.5 14.1053 11.5 13.8401V12.8401H12.5C12.7652 12.8401 13.0196 12.7347 13.2071 12.5472C13.3946 12.3597 13.5 12.1053 13.5 11.8401V4.84009C13.5001 4.77441 13.4872 4.70936 13.4621 4.64866C13.437 4.58797 13.4002 4.53281 13.3538 4.48634ZM10.5 13.8401H3.5V4.84009H8.29313L10.5 7.04696V12.3301C10.5 12.3338 10.5 12.337 10.5 12.3401C10.5 12.3432 10.5 12.3463 10.5 12.3501V13.8401ZM12.5 11.8401H11.5V6.84009C11.5001 6.77441 11.4872 6.70936 11.4621 6.64866C11.437 6.58797 11.4002 6.53281 11.3538 6.48634L8.85375 3.98634C8.80728 3.93992 8.75212 3.90311 8.69143 3.87802C8.63073 3.85293 8.56568 3.84004 8.5 3.84009H5.5V2.84009H10.2931L12.5 5.04696V11.8401ZM9 9.84009C9 9.9727 8.94732 10.0999 8.85355 10.1936C8.75979 10.2874 8.63261 10.3401 8.5 10.3401H5.5C5.36739 10.3401 5.24021 10.2874 5.14645 10.1936C5.05268 10.0999 5 9.9727 5 9.84009C5 9.70748 5.05268 9.5803 5.14645 9.48653C5.24021 9.39277 5.36739 9.34009 5.5 9.34009H8.5C8.63261 9.34009 8.75979 9.39277 8.85355 9.48653C8.94732 9.5803 9 9.70748 9 9.84009ZM9 11.8401C9 11.9727 8.94732 12.0999 8.85355 12.1936C8.75979 12.2874 8.63261 12.3401 8.5 12.3401H5.5C5.36739 12.3401 5.24021 12.2874 5.14645 12.1936C5.05268 12.0999 5 11.9727 5 11.8401C5 11.7075 5.05268 11.5803 5.14645 11.4865C5.24021 11.3928 5.36739 11.3401 5.5 11.3401H8.5C8.63261 11.3401 8.75979 11.3928 8.85355 11.4865C8.94732 11.5803 9 11.7075 9 11.8401Z" fill="white"/>
</svg>
