<svg width="20" height="20" viewBox="0 0 20 20" fill="none" xmlns="http://www.w3.org/2000/svg">
<path d="M17.7671 3.11406C17.7537 2.88471 17.6565 2.66826 17.4941 2.5058C17.3316 2.34335 17.1152 2.2462 16.8858 2.23281C13.7921 2.05078 11.0585 2.41562 8.76081 3.3164C6.56237 4.17812 4.86784 5.51406 3.85846 7.17969C2.4819 9.4539 2.47877 12.2148 3.82331 14.8508L2.46159 16.2125C2.37438 16.2997 2.30521 16.4032 2.25801 16.5172C2.21081 16.6311 2.18652 16.7532 2.18652 16.8766C2.18652 16.9999 2.21081 17.122 2.25801 17.2359C2.30521 17.3499 2.37438 17.4534 2.46159 17.5406C2.63771 17.7167 2.87658 17.8157 3.12565 17.8157C3.24898 17.8157 3.3711 17.7914 3.48504 17.7442C3.59898 17.697 3.70251 17.6278 3.78971 17.5406L5.15143 16.1789C6.45924 16.8461 7.79831 17.1828 9.09284 17.1828C10.4081 17.1869 11.6989 16.8273 12.8225 16.1437C14.4882 15.1344 15.8241 13.4391 16.6858 11.2414C17.5842 8.94218 17.9491 6.20781 17.7671 3.11406ZM11.8483 14.5375C10.2788 15.4883 8.43737 15.5602 6.55768 14.7656L13.1624 8.16093C13.2496 8.07373 13.3188 7.9702 13.3659 7.85626C13.4131 7.74232 13.4374 7.6202 13.4374 7.49687C13.4374 7.37354 13.4131 7.25142 13.3659 7.13748C13.3188 7.02354 13.2496 6.92002 13.1624 6.83281C13.0752 6.7456 12.9716 6.67643 12.8577 6.62923C12.7438 6.58204 12.6216 6.55775 12.4983 6.55775C12.375 6.55775 12.2529 6.58204 12.1389 6.62923C12.025 6.67643 11.9214 6.7456 11.8342 6.83281L5.23424 13.4422C4.44206 11.5672 4.51393 9.72109 5.46862 8.15156C7.10221 5.4539 10.9796 3.95469 15.9374 4.06953C16.0452 9.02578 14.546 12.9039 11.8483 14.5375Z" fill="black"/>
</svg>
