<svg width="17" height="17" viewBox="0 0 17 17" fill="none" xmlns="http://www.w3.org/2000/svg">
<path d="M12.8488 8.81186L9.6251 7.62061L8.4376 4.39436C8.36728 4.20331 8.24005 4.03843 8.07307 3.92197C7.9061 3.80551 7.70743 3.74306 7.50385 3.74306C7.30027 3.74306 7.1016 3.80551 6.93462 3.92197C6.76765 4.03843 6.64042 4.20331 6.5701 4.39436L5.3751 7.62061L2.14885 8.80811C1.95781 8.87843 1.79293 9.00566 1.67647 9.17263C1.56 9.3396 1.49756 9.53828 1.49756 9.74186C1.49756 9.94543 1.56 10.1441 1.67647 10.3111C1.79293 10.4781 1.95781 10.6053 2.14885 10.6756L5.3751 11.8706L6.5626 15.0969C6.63292 15.2879 6.76015 15.4528 6.92712 15.5692C7.0941 15.6857 7.29277 15.7481 7.49635 15.7481C7.69993 15.7481 7.8986 15.6857 8.06557 15.5692C8.23255 15.4528 8.35978 15.2879 8.4301 15.0969L9.6251 11.8706L12.8513 10.6831C13.0424 10.6128 13.2073 10.4856 13.3237 10.3186C13.4402 10.1516 13.5026 9.95293 13.5026 9.74936C13.5026 9.54578 13.4402 9.3471 13.3237 9.18013C13.2073 9.01316 13.0424 8.88593 12.8513 8.81561L12.8488 8.81186ZM9.0626 11.0094C8.99473 11.0344 8.9331 11.0738 8.88195 11.125C8.8308 11.1761 8.79136 11.2377 8.76635 11.3056L7.5001 14.7362L6.23635 11.3081C6.21138 11.2395 6.17169 11.1772 6.12008 11.1256C6.06847 11.074 6.00618 11.0343 5.9376 11.0094L2.50947 9.74561L5.9376 8.48186C6.00618 8.45688 6.06847 8.4172 6.12008 8.36559C6.17169 8.31397 6.21138 8.25169 6.23635 8.18311L7.5001 4.75498L8.76385 8.18311C8.78886 8.25098 8.8283 8.31261 8.87945 8.36376C8.9306 8.4149 8.99223 8.45434 9.0601 8.47936L12.4907 9.74561L9.0626 11.0094ZM9.5001 3.24561C9.5001 3.113 9.55278 2.98582 9.64655 2.89205C9.74031 2.79828 9.86749 2.74561 10.0001 2.74561H11.0001V1.74561C11.0001 1.613 11.0528 1.48582 11.1465 1.39205C11.2403 1.29828 11.3675 1.24561 11.5001 1.24561C11.6327 1.24561 11.7599 1.29828 11.8537 1.39205C11.9474 1.48582 12.0001 1.613 12.0001 1.74561V2.74561H13.0001C13.1327 2.74561 13.2599 2.79828 13.3537 2.89205C13.4474 2.98582 13.5001 3.113 13.5001 3.24561C13.5001 3.37821 13.4474 3.50539 13.3537 3.59916C13.2599 3.69293 13.1327 3.74561 13.0001 3.74561H12.0001V4.74561C12.0001 4.87821 11.9474 5.00539 11.8537 5.09916C11.7599 5.19293 11.6327 5.24561 11.5001 5.24561C11.3675 5.24561 11.2403 5.19293 11.1465 5.09916C11.0528 5.00539 11.0001 4.87821 11.0001 4.74561V3.74561H10.0001C9.86749 3.74561 9.74031 3.69293 9.64655 3.59916C9.55278 3.50539 9.5001 3.37821 9.5001 3.24561ZM16.0001 6.24561C16.0001 6.37821 15.9474 6.50539 15.8537 6.59916C15.7599 6.69293 15.6327 6.74561 15.5001 6.74561H15.0001V7.24561C15.0001 7.37821 14.9474 7.50539 14.8537 7.59916C14.7599 7.69293 14.6327 7.74561 14.5001 7.74561C14.3675 7.74561 14.2403 7.69293 14.1465 7.59916C14.0528 7.50539 14.0001 7.37821 14.0001 7.24561V6.74561H13.5001C13.3675 6.74561 13.2403 6.69293 13.1465 6.59916C13.0528 6.50539 13.0001 6.37821 13.0001 6.24561C13.0001 6.113 13.0528 5.98582 13.1465 5.89205C13.2403 5.79828 13.3675 5.74561 13.5001 5.74561H14.0001V5.24561C14.0001 5.113 14.0528 4.98582 14.1465 4.89205C14.2403 4.79828 14.3675 4.74561 14.5001 4.74561C14.6327 4.74561 14.7599 4.79828 14.8537 4.89205C14.9474 4.98582 15.0001 5.113 15.0001 5.24561V5.74561H15.5001C15.6327 5.74561 15.7599 5.79828 15.8537 5.89205C15.9474 5.98582 16.0001 6.113 16.0001 6.24561Z" fill="white"/>
</svg>
