<svg width="16" height="17" viewBox="0 0 16 17" fill="none" xmlns="http://www.w3.org/2000/svg">
<path d="M13.8668 5.53759C14.5606 6.98872 14.6923 8.64542 14.2365 10.1879C13.7807 11.7305 12.7696 13.0495 11.3985 13.8904C10.0274 14.7313 8.39333 15.0345 6.81177 14.7415C5.23022 14.4485 3.81325 13.5801 2.83436 12.3038C1.85547 11.0275 1.38404 9.43381 1.51105 7.83036C1.63807 6.22692 2.35453 4.72736 3.52215 3.62109C4.68978 2.51483 6.2258 1.88029 7.83376 1.83994C9.44173 1.79959 11.0076 2.35629 12.2293 3.40259L13.6462 1.98509C13.74 1.89127 13.8672 1.83856 13.9999 1.83856C14.1326 1.83856 14.2598 1.89127 14.3537 1.98509C14.4475 2.07891 14.5002 2.20616 14.5002 2.33884C14.5002 2.47152 14.4475 2.59877 14.3537 2.69259L8.35366 8.69259C8.25984 8.78641 8.13259 8.83912 7.99991 8.83912C7.86723 8.83912 7.73998 8.78641 7.64616 8.69259C7.55234 8.59877 7.49963 8.47152 7.49963 8.33884C7.49963 8.20616 7.55234 8.07891 7.64616 7.98509L9.37866 6.25259C8.90913 5.94206 8.34854 5.79909 7.78764 5.84681C7.22674 5.89453 6.69836 6.13016 6.28804 6.51554C5.87772 6.90093 5.60948 7.41352 5.52673 7.97033C5.44399 8.52714 5.55158 9.09558 5.83211 9.58363C6.11263 10.0717 6.54966 10.4508 7.07244 10.6595C7.59523 10.8683 8.17317 10.8945 8.71271 10.7339C9.25224 10.5734 9.7218 10.2354 10.0454 9.77475C10.3689 9.3141 10.5275 8.75773 10.4955 8.19572C10.4918 8.13006 10.5011 8.06431 10.5228 8.00223C10.5445 7.94016 10.5783 7.88297 10.6221 7.83393C10.6659 7.78489 10.719 7.74496 10.7782 7.71642C10.8375 7.68788 10.9017 7.67129 10.9674 7.66759C11.1 7.66013 11.2302 7.70566 11.3292 7.79415C11.3782 7.83797 11.4182 7.89102 11.4467 7.95027C11.4753 8.00952 11.4918 8.07381 11.4955 8.13947C11.5411 8.93495 11.3139 9.72219 10.8515 10.371C10.389 11.0199 9.71902 11.4916 8.9522 11.708C8.18538 11.9245 7.36765 11.8729 6.63415 11.5617C5.90066 11.2504 5.29532 10.6982 4.91817 9.99636C4.54102 9.29447 4.41465 8.48491 4.55995 7.70148C4.70524 6.91805 5.1135 6.20764 5.71725 5.68767C6.32099 5.1677 7.08408 4.8693 7.8804 4.84179C8.67672 4.81427 9.45859 5.05929 10.0968 5.53634L11.5187 4.11447C10.4767 3.24934 9.15177 2.79969 7.79844 2.85189C6.44512 2.90409 5.1588 3.45444 4.18653 4.39726C3.21426 5.34007 2.6246 6.60886 2.53081 7.95994C2.43702 9.31102 2.84571 10.6491 3.67838 11.7172C4.51106 12.7853 5.709 13.5082 7.04213 13.7468C8.37526 13.9855 9.74958 13.7233 10.9011 13.0104C12.0527 12.2975 12.9002 11.1844 13.281 9.88468C13.6618 8.58499 13.549 7.19043 12.9643 5.96884C12.9071 5.84916 12.8998 5.71167 12.944 5.58661C12.9882 5.46154 13.0802 5.35915 13.1999 5.30197C13.3196 5.24478 13.4571 5.23748 13.5821 5.28167C13.7072 5.32585 13.8096 5.41791 13.8668 5.53759Z" fill="white"/>
</svg>
